<?xml version="1.0" encoding="utf-8"?>
<!-- Generator: Adobe Illustrator 22.0.1, SVG Export Plug-In . SVG Version: 6.00 Build 0)  -->
<svg version="1.1" id="Layer_1" xmlns="http://www.w3.org/2000/svg" xmlns:xlink="http://www.w3.org/1999/xlink" x="0px" y="0px"
	 viewBox="0 0 431.5 36.7" style="enable-background:new 0 0 431.5 36.7;" xml:space="preserve">
<style type="text/css">
	.st0{fill:#FFFFFF;}
</style>
<title>Side Effects_Podcast Logo_Workaround_possible final_2018</title>
<path class="st0" d="M0,15.5v-1h15.5v1H0z M0,17.6v-1h15.5v1H0z M0,19.7v-1h15.5v1H0z M4.2,20.2h1v15h-1V20.2z M6.2,20.2h1v15h-1
	V20.2z M8.3,20.2h1v15h-1V20.2z M10.4,20.2h1v15h-1V20.2z"/>
<path class="st0" d="M17.8,14.5h1v20.7h-1V14.5z M19.9,14.5h1v20.7h-1V14.5z M22,14.5h1v20.7h-1V14.5z M32.3,14.5h1v20.7h-1v-8.3
	h-7.3v8.3h-1V14.5h1v7.3h7.3V14.5z M32.3,23.8v-1h-7.3v1H32.3z M32.3,25.9v-1h-7.3v1H32.3z M34.4,14.5h1v20.7h-1V14.5z M36.5,14.5h1
	v20.7h-1V14.5z M38.6,14.5h1v20.7h-1V14.5z"/>
<path class="st0" d="M43.3,35.2h-1V14.5h1V35.2z M45.4,35.2h-1V14.5h1V35.2z M47.5,35.2h-1V14.5h1V35.2z M49.6,30h9.9v1h-9.9v1h9.9
	v1h-9.9v1h9.9v1h-11V14.5h11v1h-9.9v1h9.9v1h-9.9v1h9.9v1h-9.9v2.6h9.3v1h-9.3v1h9.3v1h-9.3v1h9.3v1h-9.3V30z"/>
<path class="st0" d="M74.3,32.3l8.2-30.9h1.5l-9,33.8h-1.5L64.6,1.5h1.5L74.3,32.3z M75.3,24.8l-0.7,2.9l-7-26.3h1.5L75.3,24.8z
	 M76.9,19.2L76.2,22L70.7,1.5h1.5L76.9,19.2z M78.4,13.4l-0.8,2.8L73.7,1.5h1.5L78.4,13.4z M78.1,35.2h-1.5l9-33.8h1.5L78.1,35.2z
	 M81.1,35.2h-1.5l9-33.7h1.5L81.1,35.2z M84.2,35.2h-1.5l9-33.7l0,0h1.6l0,0l4,13.7l3.6-13.7h1.5l-9,33.8h-1.5l-4-13.7L84.2,35.2z
	 M88.6,18.7l4,13.8l0.8-2.9l-4-13.7L88.6,18.7z M90.2,12.9l4,13.7l0.8-2.9l-4-13.8L90.2,12.9z M91.6,7.2l4,13.7l0.8-2.9l-4-13.8
	L91.6,7.2z M96.4,35.2h-1.5l9-33.8h1.5L96.4,35.2z M99.4,35.2h-1.5l8.9-33.8h1.5L99.4,35.2z M102.5,35.2h-1.5l8.9-33.8h1.5
	L102.5,35.2z"/>
<path class="st0" d="M111.8,26.8c-1.7-4-1.7-8.5,0-12.5c1.6-3.9,4.7-7,8.6-8.6c4-1.7,8.5-1.7,12.5,0c3.9,1.6,7,4.7,8.6,8.6
	c1.7,4,1.7,8.5,0,12.5c-1.6,3.9-4.7,7-8.6,8.6c-4,1.7-8.5,1.7-12.5,0C116.5,33.8,113.4,30.7,111.8,26.8z M113.1,14.8
	c-2.3,5.5-1.1,11.9,3.1,16.1c1.3,1.3,2.9,2.4,4.7,3.1c3.6,1.5,7.8,1.5,11.4,0c1.7-0.7,3.3-1.8,4.7-3.1c1.3-1.3,2.4-2.9,3.1-4.7
	c1.5-3.6,1.5-7.8,0-11.4c-0.7-1.7-1.8-3.3-3.1-4.6c-1.3-1.3-2.9-2.4-4.7-3.1c-3.6-1.6-7.8-1.6-11.4,0c-1.8,0.7-3.3,1.8-4.7,3.1
	C114.9,11.5,113.8,13.1,113.1,14.8L113.1,14.8z M114.5,25.7c-1.4-3.3-1.4-7,0-10.3c0.7-1.6,1.6-3,2.8-4.2c1.2-1.2,2.6-2.2,4.2-2.8
	c3.3-1.4,7-1.4,10.3,0c3.2,1.3,5.7,3.8,7,7c1.4,3.3,1.4,7,0,10.3c-0.7,1.6-1.6,3-2.8,4.2c-1.2,1.2-2.6,2.2-4.2,2.8
	c-3.3,1.4-7,1.4-10.3,0C118.3,31.4,115.8,28.8,114.5,25.7L114.5,25.7z M115.8,16c-1.2,2.9-1.2,6.2,0,9.1c1.2,2.8,3.4,5.1,6.3,6.3
	c2.9,1.2,6.2,1.2,9.1,0c1.4-0.6,2.7-1.4,3.8-2.5c1.1-1.1,1.9-2.3,2.5-3.8c1.2-2.9,1.2-6.2,0-9.1c-1.2-2.8-3.4-5.1-6.3-6.3
	c-2.9-1.2-6.2-1.2-9.1,0c-1.4,0.6-2.7,1.4-3.8,2.5C117.2,13.3,116.4,14.6,115.8,16L115.8,16z M117.7,25.7c-2.8-4.9-1.1-11.2,3.8-14
	c3.1-1.8,7-1.8,10.2,0c1.6,0.9,2.9,2.2,3.8,3.8c2.7,5,0.8,11.2-4.2,13.9C126.5,31.9,120.5,30.3,117.7,25.7L117.7,25.7z M120.4,14.3
	c-3.5,3.4-3.5,9-0.1,12.4c3.4,3.5,9,3.5,12.4,0.1c3.5-3.4,3.5-9,0.1-12.4c-1.6-1.7-3.9-2.6-6.2-2.6C124.3,11.7,122,12.6,120.4,14.3
	L120.4,14.3z M121.4,25.7c-2.8-2.9-2.8-7.5,0.1-10.4s7.5-2.8,10.4,0.1c2.8,2.9,2.8,7.5-0.1,10.4c-1.4,1.3-3.2,2.1-5.1,2.1
	C124.7,27.9,122.8,27.2,121.4,25.7L121.4,25.7z M122.4,16.4c-2.3,2.3-2.3,6,0,8.3s6,2.3,8.3,0c2.3-2.3,2.3-6,0-8.3
	c-1.1-1.1-2.5-1.7-4-1.7C125.1,14.7,123.6,15.3,122.4,16.4L122.4,16.4z"/>
<path class="st0" d="M157.1,24.3h8.8c1.9,0,3.7-0.5,5.3-1.4c1.6-0.9,3-2.3,3.9-3.9c1-1.7,1.5-3.6,1.4-5.6c0-1.8-0.5-3.6-1.4-5.2
	c-1-1.6-2.3-2.9-3.9-3.9c-1.6-1-3.4-1.5-5.3-1.5h-18.5v32.3H146V1.5H166c2.1,0,4.2,0.6,6,1.6c1.8,1.1,3.4,2.6,4.5,4.4
	c1.1,1.8,1.7,3.8,1.7,5.9c0,2.2-0.5,4.4-1.6,6.4c-1,1.8-2.5,3.3-4.2,4.3l3.8,11.1h-1.5L171,24.8c-0.4,0.2-0.8,0.3-1.2,0.5l3.4,10
	h-1.6l-3.3-9.6c-0.1,0-0.6,0.1-1.3,0.1l3.2,9.5h-1.6l-3.1-9.5h-1.3l3,9.5h-1.6l-3-9.5h-5.4L157.1,24.3z M157.1,21.4h8.8
	c4.3,0,7.7-3.4,7.8-7.7c0-0.1,0-0.2,0-0.3c0-2-0.8-3.9-2.3-5.3C170,6.7,168,5.9,166,5.9h-15.5v29.3H149V4.4h17
	c1.6,0,3.2,0.4,4.6,1.2c1.4,0.8,2.6,2,3.4,3.3c0.8,1.3,1.3,2.9,1.3,4.4c0.1,2.5-0.9,4.9-2.7,6.7c-1.7,1.8-4.1,2.7-6.5,2.7h-8.8V21.4
	z M157.1,18.4h8.8c2.6,0.1,4.7-1.9,4.8-4.4c0-0.2,0-0.4,0-0.6c0-1.2-0.5-2.4-1.5-3.2c-0.9-0.9-2.1-1.4-3.4-1.4h-12.6v26.4h-1.5V7.3
	H166c1.7,0,3.2,0.7,4.4,1.9c1.2,1.1,1.9,2.6,1.9,4.2c0.1,1.8-0.6,3.5-1.8,4.7c-1.2,1.2-2.8,1.8-4.4,1.8h-8.8V18.4z M156.3,35.2h-1.5
	V10.3H166c0.9,0,1.7,0.3,2.4,0.9c0.6,0.6,1,1.4,1,2.2c0,2.4-1.1,3.5-3.4,3.5h-8.8v-1.5h8.8c0.5,0,1-0.1,1.4-0.5
	c0.4-0.4,0.6-1,0.5-1.6c0-0.5-0.2-0.9-0.5-1.2c-0.4-0.3-0.9-0.5-1.3-0.5h-9.7L156.3,35.2z"/>
<path class="st0" d="M181.3,5.9h1.5v29.3h-1.5V5.9z M184.2,5.9h1.4v29.3h-1.5L184.2,5.9z M187.2,5.9h1.5v29.3h-1.5L187.2,5.9z
	 M190.1,5.9h1.5v29.3h-1.5V5.9z M202.3,5.9h-1.6l-8.2,14.8l8.1,14.5h1.6l-8.1-14.5L202.3,5.9z M205.6,5.9h-1.6l-8.2,14.8l8,14.6h1.6
	l-8-14.5L205.6,5.9z M208.8,5.9h-1.6L199,20.7l8.1,14.5h1.6l-8-14.5L208.8,5.9z M212.1,5.9h-1.6l-8.2,14.8l8.1,14.5h1.6l-8.1-14.5
	L212.1,5.9z"/>
<path class="st0" d="M217.6,35.2h-1.6l13.4-33.8h1.6l13.3,33.8h-1.6L230.2,3.4L217.6,35.2z M230.4,6.9l0.8,1.9l-10.5,26.4h-1.6
	L230.4,6.9z M232,10.8l0.8,2l-8.8,22.4h-1.6L232,10.8z M233.6,14.8l0.8,2.1l-7.3,18.4h-1.6L233.6,14.8z M229.6,31.1l0.6-1.5h9.6
	l0.6,1.5H229.6z M230.7,28.2l0.6-1.5h7.3l0.6,1.5H230.7z M231.8,25.3l0.6-1.5h5l0.6,1.5H231.8z M234.1,1.4l13.3,33.8h-1.6L232.5,1.5
	L234.1,1.4z M237.3,1.4l13.4,33.8h-1.6L235.7,1.5L237.3,1.4z M253.8,35.2h-1.6L238.9,1.5h1.6L253.8,35.2z"/>
<path class="st0" d="M267.5,27.1h8.8c1.8,0,3.5-0.4,5-1.3c3.1-1.8,5.1-5.1,5.1-8.8c0-1.7-0.5-3.4-1.3-4.8c-0.9-1.5-2.2-2.7-3.7-3.5
	c-1.5-0.9-3.2-1.3-5-1.3h-18.5v27.9h-1.5V5.9h19.9c1.5,0,3,0.3,4.4,0.9c1.4,0.6,2.6,1.4,3.7,2.4c1,1,1.9,2.2,2.5,3.5
	c0.6,1.3,0.9,2.8,0.9,4.3c0,2.2-0.5,4.3-1.6,6.2c-1.1,1.7-2.6,3.1-4.4,4l3.1,8h-1.6l-2.9-7.4c-0.4,0.1-0.8,0.2-1.3,0.4l2.8,7h-1.6
	l-2.7-6.7c-0.4,0-0.9,0.1-1.3,0.1l2.6,6.7h-1.5l-2.6-6.7h-1.3l2.5,6.7h-1.5l-2.5-6.7h-4.4V27.1z M267.5,24.1h8.8c1.9,0,3.7-0.7,5-2
	c1.4-1.3,2.2-3.2,2.1-5.1c0-1.8-0.8-3.5-2.1-4.7c-1.3-1.3-3.1-2-5-2h-15.5v24.9h-1.5V8.8h17c2.2,0,4.4,0.9,6,2.5
	c1.6,1.5,2.6,3.5,2.6,5.7c0.1,2.3-0.9,4.5-2.5,6.1c-1.6,1.6-3.8,2.5-6.1,2.5h-8.8L267.5,24.1z M267.5,21.2h8.8c1.1,0,2.2-0.4,3-1.1
	c0.8-0.8,1.3-1.9,1.2-3.1c0-1-0.5-2-1.3-2.6c-0.8-0.8-1.9-1.2-3-1.2h-12.6v22h-1.5V11.7h14.1c1.5,0,2.9,0.6,4,1.6
	c1.1,0.9,1.7,2.3,1.7,3.7c0.1,1.5-0.5,3-1.6,4.1c-1.1,1-2.5,1.6-4,1.5h-8.8L267.5,21.2z M266.6,35.2h-1.5V14.7h11.1
	c0.7,0,1.4,0.2,1.9,0.7c0.5,0.4,0.8,1,0.8,1.7c0.2,1.3-0.7,2.5-2.1,2.7c-0.2,0-0.5,0-0.7,0h-8.8v-1.5h8.8c0.6,0.1,1.2-0.3,1.3-0.9
	c0-0.1,0-0.2,0-0.3c0-0.3-0.2-0.5-0.4-0.6c-0.3-0.2-0.6-0.3-0.9-0.2h-9.7V35.2z"/>
<path class="st0" d="M291.8,25.5c-1.9-4.6-1.9-9.7,0-14.3c1.8-4.4,5.3-7.9,9.8-9.8c4.6-1.9,9.7-1.9,14.2,0c4.4,1.8,7.9,5.3,9.8,9.8
	c1.9,4.6,1.9,9.7,0,14.3c-0.9,2.2-2.3,4.2-3.9,5.9c-1.7,1.7-3.7,3-5.9,3.9c-4.6,1.9-9.7,1.9-14.2,0
	C297.1,33.4,293.6,29.9,291.8,25.5L291.8,25.5z M293.1,11.8c-1.8,4.2-1.8,8.9,0,13.1c1.7,4.1,4.9,7.3,9,9c4.2,1.8,8.9,1.8,13.1,0
	c2-0.8,3.8-2.1,5.4-3.6c1.5-1.6,2.7-3.4,3.6-5.4c1.8-4.2,1.8-8.9,0-13.1c-1.7-4.1-4.9-7.3-9-9c-4.2-1.8-8.9-1.8-13.1,0
	C298,4.5,294.8,7.7,293.1,11.8L293.1,11.8z M295.3,26.1c-2.8-4.8-2.8-10.7,0-15.5c1.3-2.3,3.3-4.3,5.6-5.6c4.8-2.8,10.7-2.8,15.5,0
	c2.3,1.3,4.3,3.3,5.6,5.6c2.8,4.8,2.8,10.7,0,15.5c-1.3,2.3-3.3,4.3-5.6,5.6c-4.8,2.8-10.7,2.8-15.5,0
	C298.6,30.3,296.7,28.4,295.3,26.1z M295.8,12.9c-1.5,3.5-1.5,7.4,0,10.8c1.4,3.4,4,6.1,7.4,7.4c3.5,1.5,7.4,1.5,10.8,0
	c3.4-1.4,6-4,7.4-7.4c1.5-3.5,1.5-7.4,0-10.8c-1.4-3.4-4-6-7.4-7.4c-3.5-1.5-7.4-1.5-10.8,0C299.9,6.9,297.2,9.6,295.8,12.9
	L295.8,12.9z M297.8,24.6c-3.4-6-1.3-13.6,4.6-17c6-3.4,13.6-1.3,17,4.6c3.4,6,1.3,13.6-4.6,17c-3.8,2.2-8.6,2.2-12.4,0
	C300.5,28.1,298.9,26.5,297.8,24.6L297.8,24.6z M299.1,12.8c-2,3.4-2,7.6,0,11.1c1,1.7,2.3,3,4,4c3.4,2,7.6,2,11,0c1.7-1,3-2.3,4-4
	c2-3.4,2-7.6,0-11.1c-1-1.7-2.3-3-4-4c-3.4-2-7.6-2-11,0C301.5,9.8,300.1,11.2,299.1,12.8L299.1,12.8z M299.8,22c-1-2.4-1-5,0-7.4
	c0.5-1.1,1.2-2.1,2-3c0.9-0.9,1.9-1.5,3-2c2.4-1,5-1,7.4,0c1.1,0.5,2.1,1.2,3,2c0.8,0.9,1.5,1.9,2,3c1,2.4,1,5,0,7.4
	c-0.5,1.1-1.2,2.1-2,3c-0.9,0.9-1.9,1.5-3,2c-2.4,1-5,1-7.4,0c-1.1-0.5-2.2-1.1-3-2C301,24.2,300.3,23.2,299.8,22L299.8,22z
	 M302.9,12.6c-3.2,3.2-3.2,8.3,0,11.4c3.2,3.2,8.3,3.2,11.4,0c3.2-3.2,3.2-8.3,0-11.4c-1.5-1.5-3.6-2.4-5.7-2.4
	C306.5,10.3,304.4,11.1,302.9,12.6L302.9,12.6z"/>
<path class="st0" d="M358.1,22.2V5.9h1.5v16.3c0,1.9-0.4,3.9-1.2,5.6c-0.7,1.7-1.8,3.3-3.2,4.6c-1.4,1.3-3,2.4-4.8,3.1
	c-3.7,1.5-7.8,1.5-11.5,0c-1.8-0.7-3.4-1.8-4.8-3.1c-1.3-1.3-2.4-2.9-3.2-4.6c-0.8-1.8-1.2-3.7-1.2-5.6V5.9h1.5v16.3
	c0,2.3,0.6,4.5,1.8,6.5c3.9,6.4,12.3,8.4,18.7,4.5c1.9-1.1,3.4-2.7,4.5-4.5C357.5,26.8,358.1,24.5,358.1,22.2z M355.2,22.2V5.9h1.5
	v16.3c0,2-0.5,4-1.6,5.8c-1.1,1.8-2.5,3.2-4.3,4.2c-3.7,2.1-8.2,2.1-12,0c-1.8-1-3.3-2.4-4.4-4.2c-1.1-1.7-1.6-3.7-1.6-5.8V5.9h1.5
	v16.3c0,1.8,0.5,3.5,1.4,5c0.9,1.5,2.2,2.8,3.8,3.7c3.3,1.8,7.2,1.8,10.5,0c1.6-0.9,2.9-2.1,3.8-3.7C354.7,25.7,355.2,24,355.2,22.2
	z M352.3,22.2V5.9h1.5v16.3c0,2.3-0.9,4.5-2.6,6.1c-3.6,3.4-9.1,3.4-12.7,0c-1.7-1.6-2.7-3.8-2.6-6.1V5.9h1.5v16.3
	c0,1.9,0.8,3.8,2.2,5c3,2.8,7.6,2.8,10.6,0C351.5,26,352.3,24.1,352.3,22.2z M349.3,22.2V5.9h1.5v16.3c0,1.5-0.6,3-1.8,4
	c-2.4,2.2-6.2,2.2-8.6,0c-1.1-1-1.8-2.5-1.8-4V5.9h1.5v16.3c0,1.2,0.5,2.3,1.4,3c1.9,1.6,4.7,1.6,6.5,0
	C348.8,24.5,349.3,23.4,349.3,22.2z"/>
<path class="st0" d="M364.8,3.9v31.3h-1.5V1.5h1.8l20.7,33.7H384L364.8,3.9z M366.2,8l1.5,2.5v24.7h-1.5V8z M366.7,1.5h1.7
	l20.8,33.7h-1.7L366.7,1.5z M369.2,12.9l1.5,2.5v19.8h-1.5L369.2,12.9z M370.2,1.5h1.7l20.8,33.7h-1.8L370.2,1.5z M372,17.7l1.5,2.4
	v15.1H372V17.7z M373.6,1.5h1.7l19.3,31.4V1.5h1.5v33.7h-1.8L373.6,1.5z M387.3,19l-1.5-2.4V1.5h1.5V19z M390.2,23.8l-1.5-2.5V1.5
	h1.5V23.8z M393.1,28.7l-1.5-2.5V1.5h1.5L393.1,28.7z"/>
<path class="st0" d="M416.9,35.2h-16.9V5.9h16.9c2.5,0,5,0.7,7.2,2c2.2,1.3,4.1,3.1,5.3,5.3c1.3,2.2,2,4.8,2,7.3
	c0,2-0.4,3.9-1.2,5.7c-1.5,3.5-4.3,6.4-7.8,7.8C420.7,34.8,418.8,35.2,416.9,35.2z M401.4,33.7h15.5c2.3,0,4.5-0.6,6.5-1.8
	c2-1.2,3.6-2.8,4.8-4.8c1.2-2,1.8-4.3,1.8-6.7c0-2.3-0.6-4.6-1.8-6.6c-1.2-2-2.8-3.7-4.8-4.8c-2-1.2-4.2-1.8-6.5-1.8h-15.5V33.7z
	 M402.9,32.3V8.8h14c2,0,4,0.5,5.8,1.6c1.8,1,3.2,2.5,4.2,4.3c1,1.8,1.6,3.8,1.6,5.9c0,4.2-2.2,8.1-5.8,10.2c-1.7,1-3.7,1.6-5.7,1.6
	L402.9,32.3z M404.3,30.8h12.5c1.8,0,3.5-0.5,5-1.4c1.5-0.9,2.8-2.2,3.7-3.8c0.9-1.6,1.4-3.4,1.4-5.2c0-1.8-0.5-3.6-1.4-5.1
	c-0.9-1.5-2.1-2.8-3.7-3.8c-1.5-0.9-3.2-1.4-5-1.4h-12.5V30.8z M405.8,29.3V11.7h11.1c2.3,0,4.4,0.9,6,2.6c1.6,1.6,2.6,3.9,2.5,6.2
	c0,2.3-0.9,4.6-2.5,6.3c-1.5,1.7-3.7,2.6-6,2.6L405.8,29.3z M407.3,27.9h9.6c1.9,0,3.7-0.7,5-2.2c1.4-1.4,2.1-3.3,2.1-5.2
	c0-1.9-0.7-3.8-2.1-5.2c-1.3-1.4-3.1-2.2-5-2.1h-9.6V27.9z M408.8,26.4V14.7h8.1c1.5,0,2.9,0.6,3.9,1.7c1.1,1.1,1.6,2.6,1.6,4.1
	c0,1.6-0.5,3.1-1.6,4.2c-1,1.1-2.4,1.7-3.9,1.7L408.8,26.4z M410.2,24.9h6.7c1.1,0,2.1-0.5,2.8-1.3c0.8-0.9,1.2-2,1.2-3.2
	c0-1.1-0.4-2.2-1.2-3.1c-0.7-0.8-1.7-1.3-2.8-1.3h-6.7V24.9z"/>
</svg>
